<svg width="1318" height="874" viewBox="0 0 1318 874" fill="none" xmlns="http://www.w3.org/2000/svg">
<g clip-path="url(#clip0_3_13)">
<rect width="1318" height="874" fill="white"/>
<path d="M800.5 701.5L1175.22 779.896C1177.53 780.378 1178.4 783.2 1176.78 784.902L1109.5 855.5" stroke="#349A51" stroke-width="6" stroke-linecap="round"/>
<path d="M567 514.5V493.217C567 491.478 568.474 490.103 570.209 490.224L1022.71 521.805C1024.28 521.915 1025.5 523.222 1025.5 524.798V702.616C1025.5 704.012 1026.46 705.223 1027.82 705.538L1099.75 722.211C1100.55 722.396 1101.39 722.248 1102.07 721.802L1157.14 685.888C1157.99 685.334 1158.5 684.389 1158.5 683.375V492.822C1158.5 491.236 1157.27 489.924 1155.68 489.828L611.5 456.5L455.849 464.356C454.253 464.437 453 465.754 453 467.352V528.5" stroke="#349A51" stroke-width="6" stroke-linecap="round"/>
<path d="M1108.5 505.5V720.5" stroke="#349A51" stroke-width="6" stroke-linecap="round"/>
<path d="M534 470L1109.5 505.5" stroke="#349A51" stroke-width="6" stroke-linecap="round"/>
<path d="M1159.5 495.5L1109.5 506.5" stroke="#349A51" stroke-width="6" stroke-linecap="round"/>
<path d="M795.976 533.381L624.823 516.532C624.608 516.511 624.392 516.513 624.178 516.538L122.083 575.779C118.84 576.162 118.457 580.717 121.59 581.637L287.321 630.301C287.768 630.432 288.238 630.457 288.696 630.375L796.212 539.319C799.64 538.704 799.442 533.722 795.976 533.381Z" stroke="#349A51" stroke-width="6" stroke-linecap="round"/>
<path d="M118 595L291 648.5" stroke="#349A51" stroke-width="6" stroke-linecap="round"/>
<path d="M177 627.5L164.123 811.744C164.047 812.828 164.564 813.869 165.474 814.464L175.389 820.947C176.371 821.588 177.636 821.599 178.629 820.974L189.194 814.322C190.014 813.806 190.534 812.926 190.591 811.96L197.5 694.5" stroke="#349A51" stroke-width="6" stroke-linecap="round"/>
<path d="M277 656L305.296 863.005C305.424 863.945 305.99 864.77 306.822 865.227L324.825 875.129C325.268 875.372 325.765 875.5 326.271 875.5H332.062C333.88 875.5 335.281 873.895 335.034 872.094L305.5 656" stroke="#349A51" stroke-width="6" stroke-linecap="round"/>
<path d="M187 681.5L282.5 717" stroke="#349A51" stroke-width="6" stroke-linecap="round"/>
<path d="M187 659.5L280 689.5" stroke="#349A51" stroke-width="6" stroke-linecap="round"/>
<path d="M189.5 665V683.5" stroke="#349A51" stroke-width="6" stroke-linecap="round"/>
<path d="M187.5 659L196.841 653.662C197.579 653.241 198.461 653.152 199.268 653.417L278.5 679.5" stroke="#349A51" stroke-width="6" stroke-linecap="round"/>
<path d="M199 646V631" stroke="#349A51" stroke-width="6" stroke-linecap="round"/>
<path d="M178.5 560C192.667 548.834 233.1 531.2 281.5 550" stroke="#349A51" stroke-width="6" stroke-linecap="round"/>
<path d="M351 541.5C360.167 531.334 389.7 515 434.5 531" stroke="#349A51" stroke-width="6" stroke-linecap="round"/>
<path d="M486.5 526.5C491.5 519 511.8 506.7 553 517.5" stroke="#349A51" stroke-width="6" stroke-linecap="round"/>
<path d="M217 704.5L203.5 753" stroke="#349A51" stroke-width="6" stroke-linecap="round"/>
<path d="M252 716L246.5 820" stroke="#349A51" stroke-width="6" stroke-linecap="round"/>
<path d="M209.5 635C213.5 636 221.8 640.5 223 650.5" stroke="#349A51" stroke-width="6" stroke-linecap="round"/>
<path d="M668 449.5V238.599C668 237.108 669.096 235.842 670.573 235.63L1248.57 152.493C1250.38 152.233 1252 153.636 1252 155.462V330.103C1252 331.719 1250.72 333.045 1249.1 333.101L797.605 348.891C795.908 348.951 794.5 347.591 794.5 345.893V230" stroke="#349A51" stroke-width="6" stroke-linecap="round"/>
<path d="M731.5 237.5V451" stroke="#349A51" stroke-width="6" stroke-linecap="round"/>
<path d="M680 293L784 283" stroke="#349A51" stroke-width="6" stroke-linecap="round"/>
<path d="M683 349.5L783 343.5" stroke="#349A51" stroke-width="6" stroke-linecap="round"/>
<path d="M684 405.5L784 401" stroke="#349A51" stroke-width="6" stroke-linecap="round"/>
<path d="M1017 691L793.5 649" stroke="#349A51" stroke-width="6" stroke-linecap="round"/>
<path d="M443 380V424C443 425.657 444.343 427 446 427H509.5C511.157 427 512.5 425.657 512.5 424V382.937C512.5 381.305 511.195 379.972 509.563 379.938L441.5 378.5M300 470H380.5C382.157 470 383.5 468.657 383.5 467V459.9C383.5 458.283 384.782 456.957 386.398 456.902L528.102 452.098C529.718 452.043 531 450.717 531 449.1V441.539C531 439.867 529.633 438.518 527.962 438.539L299.962 441.462C298.32 441.483 297 442.82 297 444.462V467C297 468.657 298.343 470 300 470Z" stroke="#349A51" stroke-width="6" stroke-linecap="round"/>
<path d="M468.5 429V438" stroke="#349A51" stroke-width="6" stroke-linecap="round"/>
<path d="M484 428V436.5" stroke="#349A51" stroke-width="6" stroke-linecap="round"/>
<path d="M399 365.5L414.02 388.757C414.333 389.242 414.5 389.807 414.5 390.385V424" stroke="#349A51" stroke-width="6" stroke-linecap="round"/>
<path d="M436 429L431.187 393.385C431.069 392.507 431.344 391.621 431.94 390.966L436 386.5" stroke="#349A51" stroke-width="6" stroke-linecap="round"/>
<path d="M453 371.5L461 365.5" stroke="#349A51" stroke-width="6" stroke-linecap="round"/>
<path d="M385.844 364.569C386.967 362.045 389.922 360.91 392.445 362.032L398.841 364.876C401.364 365.998 402.5 368.953 401.378 371.477L398.533 377.873L383 370.965L385.844 364.569Z" stroke="#349A51" stroke-width="4"/>
<path d="M407.661 430.792L412.469 426.369C413.617 425.312 415.383 425.312 416.531 426.369L421.339 430.792C423.351 432.643 422.042 436 419.308 436H409.692C406.958 436 405.649 432.643 407.661 430.792Z" stroke="#349A51" stroke-width="6" stroke-linecap="round"/>
<path d="M394.5 355V257.659C394.5 256.141 393.367 254.863 391.86 254.681L273.889 240.41C272.092 240.193 270.513 241.604 270.529 243.413L273 538.5" stroke="#349A51" stroke-width="6" stroke-linecap="round"/>
<path d="M395.5 466.5V513" stroke="#349A51" stroke-width="6" stroke-linecap="round"/>
<path d="M395 385V424.5" stroke="#349A51" stroke-width="6" stroke-linecap="round"/>
<path d="M273 243H265C263.343 243 262 244.343 262 246V535.5" stroke="#349A51" stroke-width="6" stroke-linecap="round"/>
<path d="M658.5 245L574.5 256.5" stroke="#349A51" stroke-width="6" stroke-linecap="round"/>
<path d="M661.5 299L575.5 305.5" stroke="#349A51" stroke-width="6" stroke-linecap="round"/>
<path d="M569 308.665V259.467C569 258.033 567.986 256.8 566.58 256.523L539.58 251.205C537.726 250.84 536 252.259 536 254.149V305.801C536 307.336 537.158 308.623 538.684 308.785L565.684 311.648C567.456 311.836 569 310.447 569 308.665Z" stroke="#349A51" stroke-width="6" stroke-linecap="round"/>
<path d="M452.5 267.087V313.701C452.5 315.47 454.023 316.855 455.784 316.687L533.784 309.259C535.324 309.112 536.5 307.819 536.5 306.272V255.479C536.5 253.647 534.871 252.242 533.058 252.512L455.058 264.119C453.588 264.338 452.5 265.6 452.5 267.087Z" stroke="#349A51" stroke-width="6" stroke-linecap="round"/>
<path d="M489 326V368.5" stroke="#349A51" stroke-width="6" stroke-linecap="round"/>
<path d="M446 265.5L404.5 259" stroke="#349A51" stroke-width="6" stroke-linecap="round"/>
<path d="M255.5 241L194.849 233.892C193.066 233.684 191.5 235.077 191.5 236.872V541.5" stroke="#349A51" stroke-width="6" stroke-linecap="round"/>
<path d="M161 693.5L16.5 722.5" stroke="#349A51" stroke-width="6" stroke-linecap="round"/>
<path d="M547.5 396.5C542.333 398.833 532.2 405.6 533 414C533.8 422.4 533.333 429.5 533 432" stroke="#349A51" stroke-width="6" stroke-linecap="round"/>
<path d="M565 388C570.333 389.5 581.7 395.7 584.5 408.5C586.968 419.782 590.912 426.714 593.182 429.569C593.678 430.191 594 430.947 594 431.743V441.986C594 442.326 594.058 442.664 594.171 442.985L597 451" stroke="#349A51" stroke-width="6" stroke-linecap="round"/>
<path d="M542 362C537.833 363.667 529.7 369.7 530.5 380.5C531.3 391.3 528.167 404.667 526.5 410" stroke="#349A51" stroke-width="6" stroke-linecap="round"/>
<path d="M542 362.5C547.591 360.198 559.087 363.023 560.93 392.294C560.978 393.056 561.311 393.788 561.841 394.339C564.805 397.419 568.458 402.497 567.28 405.995C566.696 407.729 564.446 406.956 563.708 405.282C560.742 398.555 555.138 389.477 549 390.5" stroke="#349A51" stroke-width="6" stroke-linecap="round"/>
<path d="M555 420C553.833 428.333 550.3 446.6 545.5 453" stroke="#349A51" stroke-width="6" stroke-linecap="round"/>
<ellipse cx="432" cy="479.5" rx="15" ry="2.5" stroke="#349A51" stroke-width="6"/>
<path d="M420.5 489.5L413 517.5" stroke="#349A51" stroke-width="6" stroke-linecap="round"/>
<path d="M433 491V523.5" stroke="#349A51" stroke-width="6" stroke-linecap="round"/>
<path d="M443 488.5L446.5 502" stroke="#349A51" stroke-width="6" stroke-linecap="round"/>
<path d="M417.5 505.5L432 507.5" stroke="#349A51" stroke-width="6" stroke-linecap="round"/>
<path d="M447 504L433.5 508" stroke="#349A51" stroke-width="6" stroke-linecap="round"/>
<path d="M865 355.5V459.5" stroke="#349A51" stroke-width="6" stroke-linecap="round"/>
<path d="M916.5 356.5V460.5" stroke="#349A51" stroke-width="6" stroke-linecap="round"/>
<path d="M977 355.5V462.5" stroke="#349A51" stroke-width="6" stroke-linecap="round"/>
<path d="M1038.5 352.5V464" stroke="#349A51" stroke-width="6" stroke-linecap="round"/>
<path d="M1105.5 351.5V463" stroke="#349A51" stroke-width="6" stroke-linecap="round"/>
<path d="M1178 349V463" stroke="#349A51" stroke-width="6" stroke-linecap="round"/>
<path d="M822 406H1228.5" stroke="#349A51" stroke-width="6" stroke-linecap="round"/>
<path d="M814 355.5V452.055C814 453.478 812.999 454.706 811.605 454.993L797 458" stroke="#349A51" stroke-width="6" stroke-linecap="round"/>
<path d="M793 356V451" stroke="#349A51" stroke-width="6" stroke-linecap="round"/>
<path d="M321.5 669C361.333 646.333 461.8 600.2 545 597" stroke="#349A51" stroke-width="6" stroke-linecap="round"/>
<path d="M553.5 609.5C585 596 657.9 569.2 697.5 570" stroke="#349A51" stroke-width="6" stroke-linecap="round"/>
<path d="M704 573.5C733 562.666 795.2 542 812 546" stroke="#349A51" stroke-width="6" stroke-linecap="round"/>
<path d="M321 671C323.167 707.833 353.4 784.4 457 796C467.859 797.316 494.215 795.546 513.745 778.182C514.236 777.745 514.562 777.149 514.678 776.502L546 600.5" stroke="#349A51" stroke-width="6" stroke-linecap="round"/>
<path d="M539 694.5C555.333 713.167 598.6 747.9 641 737.5C647.053 736.355 660.493 731.966 666.661 723.482C666.89 723.167 667.042 722.804 667.123 722.423L699 573" stroke="#349A51" stroke-width="6" stroke-linecap="round"/>
<path d="M688 666.5C705.82 680.855 748.929 704.032 780.062 683.145C780.667 682.74 781.094 682.11 781.265 681.403L813.5 548" stroke="#349A51" stroke-width="6" stroke-linecap="round"/>
<path d="M351.5 755L337 816" stroke="#349A51" stroke-width="6" stroke-linecap="round"/>
<path d="M420.5 797.5L427 881.5" stroke="#349A51" stroke-width="6" stroke-linecap="round"/>
<path d="M513 793L535.5 870.5" stroke="#349A51" stroke-width="6" stroke-linecap="round"/>
<path d="M595 743L606 837M663 737L682.5 799.5" stroke="#349A51" stroke-width="6" stroke-linecap="round"/>
<path d="M724.5 696.5L734.5 780" stroke="#349A51" stroke-width="6" stroke-linecap="round"/>
<path d="M777 696L792 750" stroke="#349A51" stroke-width="6" stroke-linecap="round"/>
<path d="M296 650.5L382.5 633" stroke="#349A51" stroke-width="6" stroke-linecap="round"/>
<path d="M121 579.5V593" stroke="#349A51" stroke-width="6" stroke-linecap="round"/>
<path d="M294 634V652.5" stroke="#349A51" stroke-width="6" stroke-linecap="round"/>
</g>
<defs>
<clipPath id="clip0_3_13">
<rect width="1318" height="874" fill="white"/>
</clipPath>
</defs>
</svg>
