<svg width="1318" height="874" viewBox="0 0 1318 874" fill="none" xmlns="http://www.w3.org/2000/svg">
<g clip-path="url(#clip0_13_3)">
<rect width="1318" height="874" fill="white" fill-opacity="0.5"/>
<path d="M679 195L0 45" stroke="#349A51" stroke-width="6" stroke-linecap="round"/>
<path d="M680.5 165L20.5 -1M1267.42 101.594L1293.06 197.844C1293.33 198.87 1293.04 199.964 1292.3 200.721L1261.59 231.899C1261.2 232.292 1260.72 232.57 1260.19 232.701C1214.68 243.828 1155.89 237.528 1130.77 232.747C1129.95 232.589 1129.25 232.09 1128.81 231.37L1104.76 191.754C1104.28 190.963 1104.19 189.994 1104.52 189.129L1137.98 101.368C1138.31 100.505 1139.02 99.8389 1139.9 99.5745C1190.26 84.5357 1243.42 92.9665 1265.44 99.5224C1266.42 99.8155 1267.16 100.601 1267.42 101.594Z" stroke="#349A51" stroke-width="6" stroke-linecap="round"/>
<path d="M1196 228V556.5" stroke="#349A51" stroke-width="6" stroke-linecap="round"/>
<path d="M1208.5 6V75.5" stroke="#349A51" stroke-width="6" stroke-linecap="round"/>
<path d="M1212 251.5V550.5" stroke="#349A51" stroke-width="6" stroke-linecap="round"/>
<path d="M1142 664.5C1181 663.333 1269.5 649.2 1311.5 602" stroke="#349A51" stroke-width="6" stroke-linecap="round"/>
<path d="M1065 786C1113.5 799.5 1231.3 825.8 1314.5 823" stroke="#349A51" stroke-width="6" stroke-linecap="round"/>
<path d="M1179.5 337.5H976.5C974.843 337.5 973.5 338.843 973.5 340.5V393.5" stroke="#349A51" stroke-width="6" stroke-linecap="round"/>
<path d="M845 399V354C845 352.343 843.657 351 842 351H641.5C639.843 351 638.5 352.343 638.5 354V393.5" stroke="#349A51" stroke-width="6" stroke-linecap="round"/>
<path d="M1104 161.5L996.27 169.787C994.707 169.907 993.5 171.21 993.5 172.778V326.5" stroke="#349A51" stroke-width="6" stroke-linecap="round"/>
<path d="M1052.5 330V200.633C1052.5 199.126 1053.62 197.854 1055.11 197.658L1094.5 192.5" stroke="#349A51" stroke-width="6" stroke-linecap="round"/>
<path d="M1007 177.5L1040 192.5" stroke="#349A51" stroke-width="6" stroke-linecap="round"/>
<path d="M866 210L797.332 213.842C795.743 213.93 794.5 215.245 794.5 216.837V339.5" stroke="#349A51" stroke-width="6" stroke-linecap="round"/>
<path d="M873.5 179L708.233 193.756C706.686 193.894 705.5 195.191 705.5 196.744V342.5" stroke="#349A51" stroke-width="6" stroke-linecap="round"/>
<path d="M688 343.5V128.253C688 126.918 688.882 125.744 690.164 125.372L699.664 122.614C701.583 122.057 703.5 123.496 703.5 125.495V172.231C703.5 173.989 705.005 175.37 706.757 175.22L872 161" stroke="#349A51" stroke-width="6" stroke-linecap="round"/>
<path d="M997 152.5L1113 141.5" stroke="#349A51" stroke-width="6" stroke-linecap="round"/>
<path d="M705.5 121.5L745.5 136.5" stroke="#349A51" stroke-width="6" stroke-linecap="round"/>
<path d="M767.5 144L792 150.5" stroke="#349A51" stroke-width="6" stroke-linecap="round"/>
<path d="M908 133.5L895 128.5M895 128.5H890.997C889.55 128.5 888.309 129.532 888.046 130.955L849.155 341.455C848.814 343.299 850.23 345 852.105 345H853.492C854.944 345 856.187 343.961 856.445 342.532L895 128.5Z" stroke="#349A51" stroke-width="6" stroke-linecap="round"/>
<path d="M1001.5 125.5L991.5 121.269M991.5 121.269L989.06 120.237C988.691 120.081 988.293 120 987.891 120H984.58C983.096 120 981.836 121.084 981.614 122.551L940.023 397.051C939.748 398.866 941.153 400.5 942.989 400.5H948.395C949.889 400.5 951.156 399.4 951.366 397.921L988.5 136L991.5 121.269Z" stroke="#349A51" stroke-width="6" stroke-linecap="round"/>
<path d="M997 148.5V141C997 139.343 995.657 138 994 138H990" stroke="#349A51" stroke-width="6" stroke-linecap="round"/>
<path d="M1001 125.5V149" stroke="#349A51" stroke-width="6" stroke-linecap="round"/>
<path d="M907.5 133.5L908.37 153.939C908.441 155.608 907.107 157 905.436 157V157C903.815 157 902.5 155.685 902.5 154.064V149.36C902.5 148.256 901.776 147.283 900.718 146.966V146.966C899.114 146.484 897.5 147.685 897.5 149.36V154.709C897.5 156.061 896.595 157.247 895.289 157.603L892 158.5" stroke="#349A51" stroke-width="6" stroke-linecap="round"/>
<path d="M891 170.5L972.5 164" stroke="#349A51" stroke-width="6" stroke-linecap="round"/>
<path d="M893 162L973 155.5" stroke="#349A51" stroke-width="6" stroke-linecap="round"/>
<path d="M881 221L966 215.5" stroke="#349A51" stroke-width="6" stroke-linecap="round"/>
<path d="M878.5 229.5L964 225" stroke="#349A51" stroke-width="6" stroke-linecap="round"/>
<path d="M868 282L959.5 278.5" stroke="#349A51" stroke-width="6" stroke-linecap="round"/>
<path d="M867.5 291.5L958.5 288" stroke="#349A51" stroke-width="6" stroke-linecap="round"/>
<path d="M947 343.5H937.5" stroke="#349A51" stroke-width="6" stroke-linecap="round"/>
<path d="M946 352H938" stroke="#349A51" stroke-width="6" stroke-linecap="round"/>
<path d="M929.513 344.514C886.865 337.813 860.881 343.822 851.332 348.5C850.202 349.054 849.667 350.319 849.918 351.552L860.61 404.085C860.847 405.249 861.735 406.169 862.907 406.361C876.127 408.533 904.588 407.26 919.683 406.173C921.053 406.075 922.163 405.052 922.396 403.699L931.989 347.968C932.271 346.331 931.154 344.772 929.513 344.514Z" stroke="#349A51" stroke-width="6" stroke-linecap="round"/>
<path d="M755.5 166.5C753.333 146.5 758.4 105.4 796 101C833.6 96.5999 838 138.167 835.5 159.5M1059.5 139.5C1057.5 116.333 1064.6 76.5175 1106.5 70.0001C1129 66.5 1150.83 82.6668 1146.5 89.0001" stroke="#349A51" stroke-width="6" stroke-linecap="round"/>
<path d="M1128 4.5L833 105" stroke="#349A51" stroke-width="6" stroke-linecap="round"/>
<path d="M809 117.5L774 132.5" stroke="#349A51" stroke-width="6" stroke-linecap="round"/>
<path d="M372.5 7L692.5 114" stroke="#349A51" stroke-width="6" stroke-linecap="round"/>
<path d="M1130 233C1153.5 227.5 1212.7 219.8 1261.5 233" stroke="#349A51" stroke-width="6" stroke-linecap="round"/>
<path d="M1131.5 95L1080 99" stroke="#349A51" stroke-width="6" stroke-linecap="round"/>
<path d="M1055.5 101.5L845 126" stroke="#349A51" stroke-width="6" stroke-linecap="round"/>
<path d="M822 132L805.044 134.609C803.58 134.834 802.5 136.093 802.5 137.574V158.5" stroke="#349A51" stroke-width="6" stroke-linecap="round"/>
<path d="M335 127.5V152.395C335 154.27 333.299 155.686 331.455 155.345L2 94.5" stroke="#349A51" stroke-width="6" stroke-linecap="round"/>
<path d="M555.5 174.5V194.886C555.5 196.764 553.794 198.181 551.948 197.835L354.948 160.958C353.529 160.693 352.5 159.453 352.5 158.009V132.5" stroke="#349A51" stroke-width="6" stroke-linecap="round"/>
<path d="M353.5 161.5L345.963 158.723C344.783 158.289 344 157.165 344 155.908V130" stroke="#349A51" stroke-width="6" stroke-linecap="round"/>
<path d="M677 201.5V214.882C677 216.762 675.292 218.178 673.445 217.83L567.945 197.96C566.527 197.693 565.5 196.455 565.5 195.012V178.5" stroke="#349A51" stroke-width="6" stroke-linecap="round"/>
<path d="M565.5 197.5L560 198" stroke="#349A51" stroke-width="6" stroke-linecap="round"/>
<path d="M279 153.5V334.451C279 336.127 277.627 337.478 275.951 337.451L1 333" stroke="#349A51" stroke-width="6" stroke-linecap="round"/>
<path d="M507 197V337.5C507 339.157 505.657 340.5 504 340.5H345.5C343.843 340.5 342.5 339.157 342.5 337.5V167.5" stroke="#349A51" stroke-width="6" stroke-linecap="round"/>
<path d="M681 345H560C558.343 345 557 343.657 557 342V210" stroke="#349A51" stroke-width="6" stroke-linecap="round"/>
<path d="M310 160.5V337C310 338.657 308.657 340 307 340H290" stroke="#349A51" stroke-width="6" stroke-linecap="round"/>
<path d="M533 204V342C533 343.657 531.657 345 530 345H514" stroke="#349A51" stroke-width="6" stroke-linecap="round"/>
<path d="M483 622.5V443.75C483 441.999 481.506 440.62 479.761 440.759L417 445.783M2 479L322 453.387" stroke="#349A51" stroke-width="6" stroke-linecap="round"/>
<path d="M-1 449.5L333.5 428.441" stroke="#349A51" stroke-width="6" stroke-linecap="round"/>
<path d="M485 625L407 644.017M1 743L235.5 685.829" stroke="#349A51" stroke-width="6" stroke-linecap="round"/>
<path d="M229 473.5V676.646C229 677.782 229.642 678.821 230.658 679.329L234.658 681.329C236.653 682.327 239 680.876 239 678.646V473.5" stroke="#349A51" stroke-width="6" stroke-linecap="round"/>
<path d="M228 678.5L2 732" stroke="#349A51" stroke-width="6" stroke-linecap="round"/>
<path d="M478.5 451L417 456.303M3 492L320 464.667" stroke="#349A51" stroke-width="6" stroke-linecap="round"/>
<path d="M1188.5 416.5L679.5 409M452.5 432V412.198C452.5 410.466 453.963 409.094 455.692 409.204L592.742 417.983C592.914 417.994 593.086 417.991 593.257 417.972L618.5 415.235" stroke="#349A51" stroke-width="6" stroke-linecap="round"/>
<path d="M404.5 440.5L410.372 465.458C410.457 465.816 410.606 466.156 410.814 466.46L416.6 474.946C417.412 476.138 417.262 477.738 416.242 478.758L414.811 480.189C414.008 480.993 413.732 482.176 414.052 483.266C416.365 491.153 418.284 504.259 410.5 505C400 506 373.5 526 373.5 536.5M350 521.5C371.72 519.921 372.809 498.717 370.588 487.913C370.53 487.634 370.424 487.363 370.291 487.111C362.635 472.743 370.699 468.709 378.195 468.337C380.283 468.233 382.249 466.246 382.902 464.26C385.206 457.252 394.332 447.639 399.705 442.767C399.904 442.586 400.074 442.386 400.219 442.16L403.482 437.084C404.104 436.116 404.133 434.862 403.38 433.991C398.801 428.701 385.584 421.092 360.5 424C326 428 330.5 480 330 481.5C317.5 518.5 322.5 523.5 350 521.5Z" stroke="#349A51" stroke-width="6" stroke-linecap="round"/>
<path d="M326.5 622L345.371 662.162C345.768 663.005 346.534 663.617 347.444 663.816L434.205 682.826C434.726 682.94 435.201 683.184 435.589 683.55C443.942 691.44 459.042 709.389 459.981 724.882C460.072 726.38 461.1 727.722 462.598 727.832C471.849 728.514 485.368 724.34 481 702.5C476.2 678.5 429 658.833 406 652L369.38 637.545C368.51 637.201 367.85 636.472 367.595 635.572L359.5 607" stroke="#349A51" stroke-width="6" stroke-linecap="round"/>
<path d="M298.5 691L358.5 675.5" stroke="#349A51" stroke-width="6" stroke-linecap="round"/>
<path d="M419.5 688C432.333 697.167 445.8 720.9 397 742.5L376 750" stroke="#349A51" stroke-width="6" stroke-linecap="round"/>
<path d="M433.5 655C465.833 651 522.1 654.5 488.5 700.5" stroke="#349A51" stroke-width="6" stroke-linecap="round"/>
<path d="M453 726L422.5 738" stroke="#349A51" stroke-width="6" stroke-linecap="round"/>
<path d="M316 519.5C278.333 554 215.1 646.2 263.5 739" stroke="#349A51" stroke-width="6" stroke-linecap="round"/>
<path d="M398.5 525C405.667 550.833 414.4 608.5 392 632.5" stroke="#349A51" stroke-width="6" stroke-linecap="round"/>
<path d="M594.5 420V464" stroke="#349A51" stroke-width="6" stroke-linecap="round"/>
<path d="M641.5 580.5C638.5 583 633.4 589 637 593" stroke="#349A51" stroke-width="6" stroke-linecap="round"/>
<path d="M650.5 579C658.667 576.667 675 576.2 675 593" stroke="#349A51" stroke-width="6" stroke-linecap="round"/>
<path d="M694.5 473H717.145C720.7 473 721.302 478.088 717.845 478.917L705 482" stroke="#349A51" stroke-width="6" stroke-linecap="round"/>
<path d="M740.5 473.5V536.765C740.5 538.091 739.629 539.26 738.358 539.639L707 549" stroke="#349A51" stroke-width="6" stroke-linecap="round"/>
<path d="M765 560.5L797.517 549.19C800.584 548.123 800.006 543.624 796.77 543.366L742 539" stroke="#349A51" stroke-width="6" stroke-linecap="round"/>
<path d="M810.5 595V608" stroke="#349A51" stroke-width="6" stroke-linecap="round"/>
<path d="M1005.5 625L1028.5 628M-4.5 774C135.167 739.5 454.6 711.8 615 877" stroke="#349A51" stroke-width="6" stroke-linecap="round"/>
<path d="M607.5 717.5C658.833 716 764.6 712.2 777 709C789.4 705.8 832.5 817 852.5 873" stroke="#349A51" stroke-width="6" stroke-linecap="round"/>
<path d="M607.5 719C623.333 756 652.2 838.4 641 872" stroke="#349A51" stroke-width="6" stroke-linecap="round"/>
<path d="M888.5 716.5C894.481 697.559 922.327 661.425 985.906 667.938C986.292 667.978 986.675 667.949 987.048 667.843C1028.97 655.893 1120.25 643.802 1154.5 690C1188.9 736.4 1028.5 788.667 944 809" stroke="#349A51" stroke-width="6" stroke-linecap="round"/>
<path d="M933 814.5C936.184 783.057 878.908 711.385 849.44 678.983C849.142 678.656 848.79 678.412 848.378 678.25C828.947 670.629 800.838 677.047 787.385 681.808C786.234 682.215 785.471 683.253 785.525 684.472C787.253 723.054 859.557 820.697 897.512 867.183C898.398 868.268 899.891 868.565 901.096 867.851C911.649 861.596 930.01 844.03 933 814.5Z" stroke="#349A51" stroke-width="6" stroke-linecap="round"/>
<path d="M765.5 606.355C739.342 602.977 707.652 601 673.5 601C583.754 601 511 614.655 511 631.5C511 648.345 583.754 662 673.5 662C738.438 662 794.479 654.851 820.5 644.517" stroke="#349A51" stroke-width="6" stroke-linecap="round"/>
<path d="M511 644.5C511 661.345 583.754 675 673.5 675C749.387 675 813.124 665.237 831 652.037" stroke="#349A51" stroke-width="6" stroke-linecap="round"/>
<path d="M756 678C756 695.121 715.929 709 666.5 709C617.071 709 577 695.121 577 678" stroke="#349A51" stroke-width="6" stroke-linecap="round"/>
<path d="M582 691.5L571.088 783.538C570.822 785.786 573.047 787.508 575.156 786.687L618 770" stroke="#349A51" stroke-width="6" stroke-linecap="round"/>
<path d="M765 678L769 701.5" stroke="#349A51" stroke-width="6" stroke-linecap="round"/>
<path d="M634.5 463C637.5 469.5 641.7 477 652.5 475C663.3 473 667.333 464.833 669 460" stroke="#349A51" stroke-width="6" stroke-linecap="round"/>
<path d="M742.5 702.5V707" stroke="#349A51" stroke-width="6" stroke-linecap="round"/>
<path d="M608 484.5C596.167 487.5 575.3 498.6 586.5 519C600.5 544.5 599 577.5 631 589" stroke="#349A51" stroke-width="6" stroke-linecap="round"/>
<path d="M595.5 562L591.767 559.511C590.481 558.654 588.75 558.908 587.867 560.176C582.662 567.647 575.675 582.722 580 597.5" stroke="#349A51" stroke-width="6" stroke-linecap="round"/>
<path d="M679.5 580C695.929 569.632 729.822 550.532 739.366 553.469C740.14 553.707 740.576 554.449 740.72 555.247C743.227 569.133 749.627 595.284 757 598" stroke="#349A51" stroke-width="6" stroke-linecap="round"/>
<path d="M617 530.5C617.5 539.667 622.4 560.6 638 571" stroke="#349A51" stroke-width="6" stroke-linecap="round"/>
<path d="M678.5 527C675 540.833 663 570 643 576" stroke="#349A51" stroke-width="6" stroke-linecap="round"/>
<path d="M689.5 482.5C700.833 490.167 718.2 516.9 697 562.5" stroke="#349A51" stroke-width="6" stroke-linecap="round"/>
<path d="M622.5 495.5C627.333 506 639 526.7 647 525.5C655 524.3 663 502 666 491" stroke="#349A51" stroke-width="6" stroke-linecap="round"/>
<path d="M634.5 476V493" stroke="#349A51" stroke-width="6" stroke-linecap="round"/>
<path d="M624.5 423C620.833 437.167 599 468.5 592 485" stroke="#349A51" stroke-width="6" stroke-linecap="round"/>
<path d="M612.5 484.5C612.667 494.667 616.1 507 628.5 475" stroke="#349A51" stroke-width="6" stroke-linecap="round"/>
<path d="M662 422C668.5 433.333 678.8 461 668 481C658.182 499.181 663.873 513.781 668.996 520.293C669.828 521.352 671.32 521.555 672.388 520.734C679.223 515.475 690 500.272 690 471.5C690 432 673 403 651 403C633.4 403 626 417.333 624.5 424.5" stroke="#349A51" stroke-width="6" stroke-linecap="round"/>
<path d="M646.5 423.5C638.833 432.833 624.5 455 628.5 469" stroke="#349A51" stroke-width="6" stroke-linecap="round"/>
<path d="M871.5 434L864.817 447.367C864.608 447.783 864.5 448.242 864.5 448.708V452.967C864.5 453.32 864.438 453.669 864.317 454L859.735 466.497C859.295 467.696 859.663 469.042 860.651 469.851L863.4 472.1C864.096 472.67 864.5 473.522 864.5 474.422V475.471C864.5 475.821 864.561 476.168 864.681 476.497L865.981 480.074C866.307 480.97 866.187 481.969 865.658 482.763L865.375 483.187C864.827 484.009 864.719 485.048 865.086 485.965L867.922 493.054C868.284 493.961 869.065 494.634 870.016 494.859L886.494 498.762C887.146 498.916 887.727 499.284 888.146 499.807L898.769 513.087C899.239 513.674 899.91 514.083 900.662 514.085C905.483 514.095 914.749 510.312 921 494.5M971.5 487C984.169 444.769 961.618 436.316 947.259 437.325C946.168 437.401 945.083 436.925 944.421 436.055C916.209 398.96 886.009 413.941 872.931 427.451C872.049 428.362 871.91 429.74 872.525 430.85L887.861 458.541C888.733 460.115 890.792 460.544 892.359 459.661C898.999 455.917 905.003 456.216 910.238 458.835C913.543 460.488 923.913 472.638 925.645 475.901C927.209 478.848 929.143 482.513 931.5 487C952.3 526.6 966.833 503.5 971.5 487Z" stroke="#349A51" stroke-width="6" stroke-linecap="round"/>
<path d="M893.5 519L873.157 541.281C872.73 541.748 872.166 542.069 871.546 542.196L822.017 552.393C821.675 552.464 821.348 552.594 821.05 552.777L783.843 575.674C783.002 576.191 781.961 576.262 781.058 575.863L761.579 567.256C761.197 567.087 760.784 567 760.367 567H756.326C753.988 567 752.549 569.556 753.761 571.555L759.729 581.403C760.466 582.619 760.235 584.189 759.177 585.141V585.141C757.64 586.524 757.957 589.018 759.792 589.972L767.566 594.014C768.17 594.329 768.864 594.428 769.533 594.295L823.711 583.557C823.903 583.519 824.099 583.5 824.294 583.5H846H880.5" stroke="#349A51" stroke-width="6" stroke-linecap="round"/>
<path d="M884 548.5L881.037 587.516C881.012 587.837 881.04 588.159 881.118 588.471L887 612" stroke="#349A51" stroke-width="6" stroke-linecap="round"/>
<path d="M958 516L973.901 552.275C973.967 552.425 974.02 552.58 974.061 552.738L1000 654.5" stroke="#349A51" stroke-width="6" stroke-linecap="round"/>
<path d="M914 557L903.457 617.86C903.197 619.364 901.849 620.432 900.325 620.343L826.917 616.025C826.64 616.008 826.367 615.954 826.106 615.863L784.304 601.303C782.962 600.835 781.476 601.373 780.745 602.592L772.44 616.434C771.862 617.396 771.87 618.599 772.46 619.554L781.17 633.657C781.69 634.498 782.59 635.029 783.577 635.077L822.663 636.984C822.887 636.994 823.109 637.03 823.325 637.091L891 656L922.608 661.578C924.003 661.824 925.38 661.061 925.911 659.748L952.5 594" stroke="#349A51" stroke-width="6" stroke-linecap="round"/>
<path d="M880.5 659L837.5 657" stroke="#349A51" stroke-width="6" stroke-linecap="round"/>
<path d="M1320.5 479.5C1284.17 505.833 1208 562.3 1194 577.5C1180.08 592.612 1130.09 589.866 1106.41 586.558C1106.13 586.519 1105.87 586.519 1105.59 586.56C1082.28 590.029 1036.09 606.532 1034.5 645.5" stroke="#349A51" stroke-width="6" stroke-linecap="round"/>
<path d="M908 466.5L903.702 475.878C903.031 477.342 901.322 478.015 899.833 477.402L894 475" stroke="#349A51" stroke-width="6" stroke-linecap="round"/>
</g>
<defs>
<clipPath id="clip0_13_3">
<rect width="1318" height="874" fill="white"/>
</clipPath>
</defs>
</svg>
